<?xml version="1.0" encoding="utf-8"?>
<!-- Generator: Adobe Illustrator 27.1.0, SVG Export Plug-In . SVG Version: 6.00 Build 0)  -->
<svg version="1.1" id="Layer_1" xmlns="http://www.w3.org/2000/svg" xmlns:xlink="http://www.w3.org/1999/xlink" x="0px" y="0px"
	 viewBox="0 0 1024 1024" style="enable-background:new 0 0 1024 1024;" xml:space="preserve">
<style type="text/css">
	.st0{fill:url(#SVGID_1_);}
	.st1{fill:url(#SVGID_00000044153092037731201370000008855342252436332700_);}
	.st2{fill:url(#SVGID_00000148646947466006724850000015925436489584794533_);}
	.st3{fill:#0A0000;}
	.st4{fill:url(#SVGID_00000167363231761092722050000018377319812011088026_);}
	.st5{fill:url(#SVGID_00000121987131885396760360000012540249036521890962_);}
	.st6{fill:url(#SVGID_00000074420682939174693870000006272328995321753248_);}
	.st7{fill:url(#SVGID_00000142861810770902341890000009006740594060711092_);}
	.st8{fill:url(#SVGID_00000098935678230129352720000004244517598360606649_);}
	.st9{fill:url(#SVGID_00000048472989217862504930000005678286641393390000_);}
	.st10{fill:url(#SVGID_00000103243128708289542460000016455550912666091394_);}
	.st11{fill:url(#SVGID_00000036210219874089817950000014193050722304159376_);}
	.st12{fill:url(#SVGID_00000009568228929277162380000015011261870857971602_);}
	.st13{fill:url(#SVGID_00000072998797557102340770000004890608528618070144_);}
	.st14{fill:url(#SVGID_00000078744528168023461620000011101676394275861926_);}
	.st15{fill:url(#SVGID_00000024002258632033699150000001932577944845448363_);}
	.st16{fill:url(#SVGID_00000128456506809266216820000018351981784676999833_);}
	.st17{fill:url(#SVGID_00000073679752501564930880000001699246185789707651_);}
	.st18{fill:url(#SVGID_00000039123577100915510870000001788745979666485133_);}
	.st19{fill:url(#SVGID_00000046315925536330845040000017253490419597494434_);}
	.st20{fill:url(#SVGID_00000004531667720215339190000007584439102944865695_);}
	.st21{fill:url(#SVGID_00000033356044829862262610000015553397083733474998_);}
	.st22{fill:url(#SVGID_00000130614253762502160340000002270088778415116989_);}
	.st23{fill:url(#SVGID_00000100369181800482684820000013011494843151359112_);}
	.st24{fill:url(#SVGID_00000103954665223979081890000002084818200157336459_);}
	.st25{fill:url(#SVGID_00000102518509046627278350000008210947683060154516_);}
	.st26{fill:url(#SVGID_00000111191904326554969990000013451839033407085957_);}
	.st27{fill:url(#SVGID_00000034057415858361470740000002622138069735324089_);}
	.st28{fill:url(#SVGID_00000104681828517131705860000004420394234784042374_);}
	.st29{fill:url(#SVGID_00000035525259429447716360000007180496785596114829_);}
	.st30{fill:url(#SVGID_00000095308890266907855110000010581472374460152980_);}
	.st31{fill:url(#SVGID_00000009587738458087434640000011393387128812913844_);}
	.st32{fill:url(#SVGID_00000131338815062392871870000001278578545938516878_);}
	.st33{fill:url(#SVGID_00000060745845491803318020000001390824552900710839_);}
	.st34{fill:url(#SVGID_00000152259102688818022750000011296866578562547128_);}
	.st35{fill:url(#SVGID_00000061470964422260561240000015302415956510522006_);}
	.st36{fill:url(#SVGID_00000158748495993417711030000009174042429867654308_);}
	.st37{fill:url(#SVGID_00000026855698508336540900000018126832054431808410_);}
	.st38{fill:url(#SVGID_00000181076581562402768660000014950322510329121449_);}
	.st39{fill:url(#SVGID_00000116215213490361144470000009420449704418363278_);}
	.st40{fill:url(#SVGID_00000094605243877699810840000012586258427659007893_);}
	.st41{fill:url(#SVGID_00000053529410676892467810000009496649265191377290_);}
	.st42{fill:url(#SVGID_00000114059950089258172850000011524895544193974168_);}
	.st43{fill:url(#SVGID_00000091725076924825625380000010314880452030644631_);}
	.st44{fill:url(#SVGID_00000018216805583095633150000008800124054795904396_);}
	.st45{fill:url(#SVGID_00000095330536893573897380000005275362529193060525_);}
	.st46{fill:url(#SVGID_00000073693886053886043350000015066301351404735120_);}
	.st47{fill:url(#SVGID_00000023247932390146537390000005396666867489916038_);}
	.st48{fill:url(#SVGID_00000034069996753048746580000009092021177514502317_);}
	.st49{fill:url(#SVGID_00000142882676987726988410000009321102209737759111_);}
	.st50{fill:url(#SVGID_00000036966321065948842410000008299292290119161757_);}
	.st51{fill:url(#SVGID_00000042012539491896877920000002462531084511388032_);}
	.st52{fill:url(#SVGID_00000038396916287294464080000007567572647606151835_);}
	.st53{fill:url(#SVGID_00000023974015469283022610000011061564208374835382_);}
	.st54{fill:url(#SVGID_00000071549833294851654420000007534724105952629940_);}
	.st55{fill:url(#SVGID_00000088132005537187243530000003053011534385429146_);}
	.st56{fill:url(#SVGID_00000052069122496195823000000005951394717232767125_);}
	.st57{fill:url(#SVGID_00000010278364694252739530000015126250497480621493_);}
	.st58{fill:url(#SVGID_00000018942426202007817710000010628741570025870516_);}
	.st59{fill:url(#SVGID_00000008861569199775912680000001969577218633192601_);}
	.st60{fill:url(#SVGID_00000127734759964553987370000004916728393716160936_);}
	.st61{fill:url(#SVGID_00000144304159042648808790000005135050823966662786_);}
	.st62{fill:url(#SVGID_00000106105357451048939160000014645295344662609287_);}
	.st63{fill:url(#SVGID_00000029008592463608630120000018112718786794847415_);}
	.st64{fill:url(#SVGID_00000119808339054433337480000001874904548144141209_);}
	.st65{fill:url(#SVGID_00000055703566695848157680000015500382895925570446_);}
	.st66{fill:url(#SVGID_00000152957559186778059570000000946890054017927074_);}
	.st67{fill:url(#SVGID_00000088090612077942051010000007276020851048059046_);}
	.st68{fill:url(#SVGID_00000092419350587902686730000007190351430291650946_);}
	.st69{fill:url(#SVGID_00000047035903455992990260000014253096832495041927_);}
	.st70{fill:url(#SVGID_00000070797382043497266310000008585739515668967823_);}
	.st71{fill:url(#SVGID_00000034066307992027838780000003002789735580546982_);}
	.st72{fill:url(#SVGID_00000167372058666589137890000001859468952009212574_);}
	.st73{fill:url(#SVGID_00000005966476917398429450000003753778673824203953_);}
	.st74{fill:url(#SVGID_00000153685147462546174840000015917617383757706171_);}
	.st75{fill:url(#SVGID_00000047765046757415228750000010810948264106132368_);}
	.st76{fill:url(#SVGID_00000093172304260171417680000012023181666175782801_);}
	.st77{fill:url(#SVGID_00000051345243384969868810000002277088661719349405_);}
	.st78{fill:url(#SVGID_00000000218312907848108670000008211210059656439217_);}
	.st79{fill:url(#SVGID_00000173847402286238586630000009611997103587540400_);}
	.st80{fill:url(#SVGID_00000070077707201074580680000006375374001999271056_);}
	.st81{fill:url(#SVGID_00000006697114054401526290000018344886242251710389_);}
	.st82{fill:url(#SVGID_00000042696827697811181380000008053777498819627661_);}
	.st83{fill:url(#SVGID_00000045608419046281686170000016069551990760942727_);}
	.st84{fill:url(#SVGID_00000120544929372695302080000004308567893909562774_);}
	.st85{fill:url(#SVGID_00000103961264219679364540000010817713508574719124_);}
	.st86{fill:url(#SVGID_00000151529816156034915120000013900912072816887171_);}
	.st87{fill:url(#SVGID_00000027568072807568825370000000694271838634848646_);}
	.st88{fill:url(#SVGID_00000160167466623624761340000014793727860225693079_);}
	.st89{fill:url(#SVGID_00000084521239516429969880000000992924487303701688_);}
	.st90{fill:url(#SVGID_00000024683469880532440380000014935956086444129673_);}
	.st91{fill:url(#SVGID_00000109007284271347012810000005527623850989065871_);}
	.st92{fill:url(#SVGID_00000040556332284114430380000014932175266780336544_);}
	.st93{fill:url(#SVGID_00000070837179050974186630000015402289571885960343_);}
	.st94{fill:url(#SVGID_00000070799406155023890190000005153385412797070744_);}
	.st95{fill:url(#SVGID_00000163041558536622474360000002906218620474641060_);}
	.st96{fill:url(#SVGID_00000017489494410522978440000010023976427626225564_);}
	.st97{fill:url(#SVGID_00000155145201483718520300000017537941555936528290_);}
	.st98{fill:url(#SVGID_00000068676996525622680650000006435352167282505123_);}
	.st99{fill:url(#SVGID_00000013884021463694598670000003890677468502213537_);}
	.st100{fill:url(#SVGID_00000062877090476348148340000012328295667017622185_);}
	.st101{fill:url(#SVGID_00000125575258518001102360000005223908385793706159_);}
	.st102{fill:url(#SVGID_00000158023180369174078130000013447149987978757531_);}
</style>
<g>
	
		<radialGradient id="SVGID_1_" cx="3065.6252" cy="1421.3906" r="180.0447" gradientTransform="matrix(2.7778 0 0 2.7778 -7983.4819 -3414.7048)" gradientUnits="userSpaceOnUse">
		<stop  offset="0" style="stop-color:#0279FB"/>
		<stop  offset="0.1983" style="stop-color:#0477F5"/>
		<stop  offset="0.4578" style="stop-color:#0970E5"/>
		<stop  offset="0.7499" style="stop-color:#1166CA"/>
		<stop  offset="1" style="stop-color:#1A5BAD"/>
	</radialGradient>
	<path class="st0" d="M942.75,583.3l-51.68-51.68c-15.33-15.33-15.33-40.2,0-55.53l51.42-51.42c18.9-18.9,18.9-49.55,0-68.45l0,0
		c-18.9-18.9-49.55-18.9-68.45,0l-51.42,51.42c-15.33,15.33-40.2,15.33-55.53,0l-51.68-51.68c-18.9-18.9-49.55-18.9-68.45,0l0,0
		c-18.9,18.9-18.9,49.55,0,68.45l51.68,51.68c15.33,15.33,15.33,40.2,0,55.53l-51.42,51.42c-18.9,18.9-18.9,49.55,0,68.45l0,0
		c18.9,18.9,49.55,18.9,68.45,0l51.42-51.42c15.33-15.33,40.2-15.33,55.53,0l51.68,51.68c18.9,18.9,49.55,18.9,68.45,0v0
		C961.65,632.85,961.65,602.2,942.75,583.3z"/>
	
		<radialGradient id="SVGID_00000062192190140379886210000006595295475872994187_" cx="3065.6252" cy="1421.3906" r="180.0447" gradientTransform="matrix(2.7778 0 0 2.7778 -7983.4819 -3414.7048)" gradientUnits="userSpaceOnUse">
		<stop  offset="0" style="stop-color:#0279FB"/>
		<stop  offset="0.1983" style="stop-color:#0477F5"/>
		<stop  offset="0.4578" style="stop-color:#0970E5"/>
		<stop  offset="0.7499" style="stop-color:#1166CA"/>
		<stop  offset="1" style="stop-color:#1A5BAD"/>
	</radialGradient>
	<path style="fill:url(#SVGID_00000062192190140379886210000006595295475872994187_);" d="M254.17,316.75
		c-103.17,0-187.1,83.93-187.1,187.1s83.93,187.1,187.1,187.1c103.17,0,187.1-83.93,187.1-187.1S357.34,316.75,254.17,316.75z
		 M254.17,589.96c-47.55,0-86.1-38.55-86.1-86.1c0-47.55,38.55-86.1,86.1-86.1c47.55,0,86.1,38.55,86.1,86.1
		C340.28,551.41,301.73,589.96,254.17,589.96z"/>
	
		<radialGradient id="SVGID_00000099644546569249911590000008249906579579784119_" cx="3065.6252" cy="1421.3906" r="180.0447" gradientTransform="matrix(2.7778 0 0 2.7778 -7983.4819 -3414.7048)" gradientUnits="userSpaceOnUse">
		<stop  offset="0" style="stop-color:#0279FB"/>
		<stop  offset="0.1983" style="stop-color:#0477F5"/>
		<stop  offset="0.4578" style="stop-color:#0970E5"/>
		<stop  offset="0.7499" style="stop-color:#1166CA"/>
		<stop  offset="1" style="stop-color:#1A5BAD"/>
	</radialGradient>
	<path style="fill:url(#SVGID_00000099644546569249911590000008249906579579784119_);" d="M533.54,278.7L533.54,278.7
		c-28.35,0-51.33,22.98-51.33,51.33v347.65c0,28.35,22.98,51.33,51.33,51.33h0c28.35,0,51.33-22.98,51.33-51.33V330.03
		C584.87,301.68,561.89,278.7,533.54,278.7z"/>
	<g>
		<path class="st3" d="M690.31,698.04h4.75v34.65h-4.75V698.04z"/>
		<path class="st3" d="M725.7,698.04h5.02c6.04,8.75,12.08,17.37,18.17,26.52h0.09v-26.52h4.75v34.65h-5.02
			c-6-8.62-12.08-17.1-18.17-26.12h-0.09v26.12h-4.75V698.04z"/>
		<path class="st3" d="M784.37,698.04h12.75c11.55,0,16.43,7.73,16.43,17.1c0,10.31-5.95,17.55-16.03,17.55h-13.15V698.04z
			 M797.25,728.29c6.4,0,11.28-4.09,11.28-12.84c0-9.59-5.86-13.01-12.57-13.01h-6.84c0,8.57,0,17.28,0,25.85H797.25z"/>
		<path class="st3" d="M842.11,698.04h4.75v34.65h-4.75V698.04z"/>
		<path class="st3" d="M887.27,698.04h5.46l13.64,34.65h-5.11L897,722.03c-4.71,0-9.42,0-14.17,0c-1.42,3.55-2.75,7.11-4.18,10.66
			h-5.02L887.27,698.04z M895.31,717.45c-1.73-4.35-3.6-9.15-5.29-13.73h-0.09l-5.37,13.73H895.31z"/>
	</g>
</g>
</svg>
